<svg width="99" height="21" viewBox="0 0 99 21" fill="none" xmlns="http://www.w3.org/2000/svg">
<path d="M69.0068 5.78516H68.6407H65.2476H64.8807L62.3301 9.15505L59.7796 5.78516H59.4135H56.0204H55.6543L60.2671 11.8803L55.6543 17.9747H56.0204H59.4135H59.7796L62.3301 14.6048L64.8815 17.9747H65.2476H68.6407H69.0068L64.3932 11.8803L69.0068 5.78516Z" fill="#F9F9F9"/>
<path d="M88.1266 5.78516H84.6816V17.9747H88.1266V5.78516Z" fill="#F9F9F9"/>
<path d="M51.0064 5.78601V6.59876C50.1112 6.08155 49.0716 5.78601 47.964 5.78601C44.5981 5.78601 41.8691 8.5147 41.8691 11.8803C41.8691 15.246 44.5981 17.9747 47.964 17.9747C49.0724 17.9747 50.1112 17.6791 51.0064 17.1619V17.9747H54.4513V5.78516H51.0064V5.78601ZM45.2954 11.9271C45.2954 10.3984 46.5346 9.1593 48.0634 9.1593C49.5922 9.1593 50.8314 10.3984 50.8314 11.9271C50.8314 13.4557 49.5922 14.6948 48.0634 14.6948C46.5346 14.6948 45.2954 13.4557 45.2954 11.9271Z" fill="#F9F9F9"/>
<path d="M40.4906 10.327C40.4906 7.8183 38.3443 5.78516 35.6969 5.78516C35.6807 5.78516 35.6646 5.78516 35.6485 5.78516C35.6332 5.78516 35.6187 5.78516 35.6034 5.78516C35.5941 5.78516 35.5856 5.78516 35.5763 5.78516C35.5669 5.78516 35.5584 5.78516 35.5491 5.78516C35.5321 5.78516 35.5151 5.78516 35.4973 5.78516C35.4777 5.78516 35.4582 5.78516 35.4387 5.78516C34.0271 5.78516 32.7513 6.30576 31.8349 7.14568C31.0076 6.30661 29.8568 5.78516 28.5828 5.78516C28.5641 5.78516 28.5446 5.78516 28.5259 5.78516C28.5072 5.78516 28.4893 5.78516 28.4707 5.78516C28.4664 5.78516 28.4613 5.78516 28.4571 5.78516C28.4528 5.78516 28.4494 5.78516 28.4452 5.78516C28.4282 5.78516 28.4112 5.78516 28.3934 5.78601C28.3764 5.78601 28.3594 5.78601 28.3433 5.78686C28.1997 5.79025 28.057 5.8013 27.9177 5.81998C27.9008 5.82168 27.8846 5.82422 27.8676 5.82677C27.8489 5.82932 27.8294 5.83187 27.8107 5.83527C27.2102 5.92699 26.6488 6.141 26.152 6.45268V5.78601H22.707V17.9721H26.2454V11.9075V17.4082H26.2462V11.9075V10.9699C26.2462 10.9419 26.2462 10.9147 26.2479 10.8876C26.2904 9.92703 27.076 9.16184 28.0392 9.16184C29.0024 9.16184 29.788 9.92703 29.8305 10.8876C29.8313 10.9147 29.8322 10.9428 29.8322 10.9699C29.8322 10.9767 29.8322 10.9844 29.8322 10.9912V11.9075H29.8339V17.9721H33.362V11.9075H33.3637V10.9699C33.3637 10.9105 33.3671 10.8519 33.3722 10.7941C33.3654 10.7313 33.362 10.6667 33.362 10.6022C33.362 10.6676 33.3654 10.7313 33.3722 10.7941C33.4597 9.87777 34.2258 9.16184 35.1567 9.16184C36.0876 9.16184 36.8486 9.87353 36.9412 10.7856C36.9471 10.8468 36.9505 10.9079 36.9505 10.9708C36.9505 10.9776 36.9505 10.9852 36.9505 10.992V11.9084H36.9513V17.9764H40.4889V10.395C40.4889 10.3873 40.4889 10.3797 40.4889 10.372C40.4889 10.3576 40.4889 10.3432 40.4889 10.3296L40.4906 10.327Z" fill="#F9F9F9"/>
<path d="M88.1266 5.78516H84.6816V17.6902H88.1266V5.78516Z" fill="#F9F9F9"/>
<path d="M88.1266 0.75H84.6816V4.19462H88.1266V0.75Z" fill="#F9F9F9"/>
<path d="M76.8427 5.7853C75.7344 5.7853 74.6956 6.08084 73.8004 6.59805V0.75H70.3555V17.974H73.8004V17.1612C74.6956 17.6784 75.7352 17.974 76.8427 17.974C80.2087 17.974 82.9376 15.2453 82.9376 11.8796C82.9376 8.51399 80.2087 5.7853 76.8427 5.7853ZM76.7434 14.6941C75.2146 14.6941 73.9754 13.455 73.9754 11.9263C73.9754 10.3977 75.2146 9.15859 76.7434 9.15859C78.2722 9.15859 79.5114 10.3977 79.5114 11.9263C79.5114 13.455 78.2722 14.6941 76.7434 14.6941Z" fill="#F9F9F9"/>
<path d="M19.7396 10.9676C18.3305 10.7162 16.9614 10.2618 15.7069 9.57306C13.9785 8.62443 12.7104 7.39979 11.7328 5.45412C11.1841 4.36112 10.8181 3.18573 10.6032 1.98147L10.48 1.29102L10.3569 1.98232C10.1428 3.18233 9.77847 4.35517 9.23234 5.44478C8.26494 7.37431 7.01217 8.59641 5.31008 9.54164C4.04881 10.2423 2.66778 10.6992 1.24768 10.9523L0 11.1748L1.24598 11.3973C2.67118 11.6512 4.05815 12.1115 5.32282 12.8156C7.0317 13.7667 8.28788 14.999 9.25613 16.9498C9.8014 18.0479 10.1649 19.2275 10.3807 20.4352L10.4817 20.9999L10.582 20.436C10.7977 19.225 11.1629 18.0419 11.7107 16.9413C12.6841 14.9837 13.947 13.7515 15.6687 12.7986C16.9427 12.0937 18.3373 11.6334 19.771 11.3778L20.9083 11.1748L19.7404 10.9667L19.7396 10.9676Z" fill="#F9F9F9"/>
<path d="M94.464 9.22992H98.0151V5.7853H94.4946V0.75H91.0182V5.7853H89.7188V9.22992H91.0191V13.6393C91.0191 16.0342 92.9607 17.9748 95.355 17.9748H98.0143V14.5302H96.6884C96.6485 14.5302 96.6112 14.5285 96.5729 14.5276C96.2672 14.52 96.0047 14.4801 95.7814 14.4155C95.2259 14.2559 94.904 13.9493 94.7171 13.6334C94.6594 13.5349 94.6144 13.4363 94.5795 13.3404C94.5651 13.2996 94.5515 13.2597 94.5405 13.2206C94.5235 13.1612 94.5099 13.1043 94.4997 13.0499C94.4963 13.0329 94.4937 13.016 94.4903 12.999C94.4649 12.8469 94.4623 12.7255 94.464 12.6601V9.23077V9.22992Z" fill="#F9F9F9"/>
</svg>
